<?xml version="1.0" standalone="no"?>
<!DOCTYPE svg PUBLIC "-//W3C//DTD SVG 20010904//EN"
 "http://www.w3.org/TR/2001/REC-SVG-20010904/DTD/svg10.dtd">
<svg version="1.0" xmlns="http://www.w3.org/2000/svg"
 width="500.000000pt" height="500.000000pt" viewBox="0 0 500.000000 500.000000"
 preserveAspectRatio="xMidYMid meet">

<g transform="translate(0.000000,500.000000) scale(0.100000,-0.100000)"
fill="#000000" stroke="none">
<path d="M2410 2806 l0 -135 -42 19 c-80 36 -152 20 -205 -45 l-31 -37 -17 32
c-18 35 -82 69 -130 70 -17 0 -47 -9 -68 -20 -31 -17 -37 -17 -37 -5 0 12 -13
15 -60 15 l-60 0 0 -175 0 -175 60 0 60 0 0 114 c0 112 1 115 26 135 15 12 32
21 39 21 7 0 24 -9 39 -21 25 -20 26 -23 26 -135 l0 -114 60 0 60 0 0 45 0 45
36 -39 c19 -22 51 -45 71 -52 46 -15 109 -6 145 21 28 21 28 21 28 0 0 -18 6
-20 60 -20 l60 0 -2 293 -3 292 -57 3 -58 3 0 -135z m-47 -208 c32 -17 46 -39
46 -73 0 -34 -14 -56 -46 -73 -53 -28 -113 6 -113 64 0 74 55 113 113 82z"/>
<path d="M2690 2645 l0 -295 60 0 60 0 0 51 0 52 23 -33 c38 -57 71 -75 137
-75 45 0 65 5 89 23 30 22 31 22 31 2 0 -18 6 -20 60 -20 l60 0 0 175 0 175
-60 0 c-45 0 -60 -4 -60 -14 0 -11 -8 -10 -37 6 -28 14 -52 18 -91 15 -59 -4
-94 -25 -129 -77 l-23 -33 0 172 0 171 -60 0 -60 0 0 -295z m383 -66 c22 -28
22 -81 -2 -110 -27 -33 -95 -33 -122 0 -22 27 -25 80 -6 103 33 42 97 46 130
7z"/>
<path d="M1660 2913 c-69 -25 -67 -112 3 -136 46 -17 96 36 83 87 -5 20 -53
59 -68 55 -2 0 -10 -3 -18 -6z"/>
<path d="M2590 2913 c-69 -25 -67 -112 3 -136 46 -17 96 36 83 87 -5 20 -53
59 -68 55 -2 0 -10 -3 -18 -6z"/>
<path d="M1620 2525 l0 -175 60 0 60 0 0 175 0 175 -60 0 -60 0 0 -175z"/>
<path d="M2550 2525 l0 -175 60 0 60 0 0 175 0 175 -60 0 -60 0 0 -175z"/>
<path d="M3280 2488 c-53 -20 -66 -83 -25 -123 30 -30 64 -32 99 -4 18 14 26
30 26 53 0 60 -46 94 -100 74z"/>
</g>
</svg>
